<svg width="501" height="248" viewBox="0 0 501 248" fill="none" xmlns="http://www.w3.org/2000/svg">
<rect width="501" height="248" fill="#FFA400"/>
<path d="M115.15 205.6C112.65 205.6 110.433 205.15 108.5 204.25C106.6 203.317 104.983 202.05 103.65 200.45C102.317 198.817 101.3 196.9 100.6 194.7C99.9333 192.5 99.6 190.133 99.6 187.6C99.6 184.667 100 182.067 100.8 179.8C101.633 177.533 102.733 175.65 104.1 174.15C105.467 172.617 107.05 171.467 108.85 170.7C110.683 169.9 112.583 169.5 114.55 169.5C115.617 169.5 116.55 169.617 117.35 169.85C118.183 170.05 118.9 170.317 119.5 170.65C120.1 170.983 120.6 171.367 121 171.8C121.4 172.2 121.7 172.6 121.9 173H122.2V170.1H128V181.2H122.2V178.95C122.2 177.25 121.633 175.883 120.5 174.85C119.4 173.817 117.783 173.3 115.65 173.3C113.417 173.3 111.667 174 110.4 175.4C109.133 176.8 108.5 179 108.5 182V192.15C108.5 193.717 108.7 195.05 109.1 196.15C109.5 197.25 110.05 198.167 110.75 198.9C111.483 199.633 112.333 200.167 113.3 200.5C114.3 200.833 115.383 201 116.55 201C118.683 201 120.483 200.45 121.95 199.35C123.45 198.217 124.583 196.7 125.35 194.8L128.2 196.45C127.767 197.717 127.15 198.917 126.35 200.05C125.55 201.15 124.583 202.117 123.45 202.95C122.35 203.783 121.1 204.433 119.7 204.9C118.3 205.367 116.783 205.6 115.15 205.6ZM148.617 201.9C149.651 201.9 150.617 201.733 151.517 201.4C152.417 201.067 153.201 200.55 153.867 199.85C154.567 199.15 155.117 198.25 155.517 197.15C155.917 196.05 156.117 194.733 156.117 193.2V181.9C156.117 180.367 155.917 179.05 155.517 177.95C155.117 176.85 154.567 175.95 153.867 175.25C153.201 174.55 152.417 174.033 151.517 173.7C150.617 173.367 149.651 173.2 148.617 173.2C147.584 173.2 146.617 173.367 145.717 173.7C144.817 174.033 144.017 174.55 143.317 175.25C142.651 175.95 142.117 176.85 141.717 177.95C141.317 179.05 141.117 180.367 141.117 181.9V193.2C141.117 194.733 141.317 196.05 141.717 197.15C142.117 198.25 142.651 199.15 143.317 199.85C144.017 200.55 144.817 201.067 145.717 201.4C146.617 201.733 147.584 201.9 148.617 201.9ZM148.617 205.6C146.284 205.6 144.117 205.2 142.117 204.4C140.117 203.6 138.384 202.45 136.917 200.95C135.451 199.417 134.301 197.533 133.467 195.3C132.634 193.033 132.217 190.45 132.217 187.55C132.217 184.65 132.634 182.083 133.467 179.85C134.301 177.583 135.451 175.7 136.917 174.2C138.384 172.667 140.117 171.5 142.117 170.7C144.117 169.9 146.284 169.5 148.617 169.5C150.951 169.5 153.117 169.9 155.117 170.7C157.117 171.5 158.851 172.667 160.317 174.2C161.784 175.7 162.934 177.583 163.767 179.85C164.601 182.083 165.017 184.65 165.017 187.55C165.017 190.45 164.601 193.033 163.767 195.3C162.934 197.533 161.784 199.417 160.317 200.95C158.851 202.45 157.117 203.6 155.117 204.4C153.117 205.2 150.951 205.6 148.617 205.6ZM186.605 201.9C187.639 201.9 188.605 201.733 189.505 201.4C190.405 201.067 191.189 200.55 191.855 199.85C192.555 199.15 193.105 198.25 193.505 197.15C193.905 196.05 194.105 194.733 194.105 193.2V181.9C194.105 180.367 193.905 179.05 193.505 177.95C193.105 176.85 192.555 175.95 191.855 175.25C191.189 174.55 190.405 174.033 189.505 173.7C188.605 173.367 187.639 173.2 186.605 173.2C185.572 173.2 184.605 173.367 183.705 173.7C182.805 174.033 182.005 174.55 181.305 175.25C180.639 175.95 180.105 176.85 179.705 177.95C179.305 179.05 179.105 180.367 179.105 181.9V193.2C179.105 194.733 179.305 196.05 179.705 197.15C180.105 198.25 180.639 199.15 181.305 199.85C182.005 200.55 182.805 201.067 183.705 201.4C184.605 201.733 185.572 201.9 186.605 201.9ZM186.605 205.6C184.272 205.6 182.105 205.2 180.105 204.4C178.105 203.6 176.372 202.45 174.905 200.95C173.439 199.417 172.289 197.533 171.455 195.3C170.622 193.033 170.205 190.45 170.205 187.55C170.205 184.65 170.622 182.083 171.455 179.85C172.289 177.583 173.439 175.7 174.905 174.2C176.372 172.667 178.105 171.5 180.105 170.7C182.105 169.9 184.272 169.5 186.605 169.5C188.939 169.5 191.105 169.9 193.105 170.7C195.105 171.5 196.839 172.667 198.305 174.2C199.772 175.7 200.922 177.583 201.755 179.85C202.589 182.083 203.005 184.65 203.005 187.55C203.005 190.45 202.589 193.033 201.755 195.3C200.922 197.533 199.772 199.417 198.305 200.95C196.839 202.45 195.105 203.6 193.105 204.4C191.105 205.2 188.939 205.6 186.605 205.6ZM207.644 201.7H211.144V173.4H207.644V170.1H222.994V173.4H219.244V201.4H228.744V194.7H234.544V205H207.644V201.7ZM266.371 205.6C263.871 205.6 261.654 205.15 259.721 204.25C257.821 203.317 256.204 202.05 254.871 200.45C253.537 198.817 252.521 196.9 251.821 194.7C251.154 192.5 250.821 190.133 250.821 187.6C250.821 184.667 251.221 182.067 252.021 179.8C252.854 177.533 253.954 175.65 255.321 174.15C256.687 172.617 258.271 171.467 260.071 170.7C261.904 169.9 263.804 169.5 265.771 169.5C266.837 169.5 267.771 169.617 268.571 169.85C269.404 170.05 270.121 170.317 270.721 170.65C271.321 170.983 271.821 171.367 272.221 171.8C272.621 172.2 272.921 172.6 273.121 173H273.421V170.1H279.221V181.2H273.421V178.95C273.421 177.25 272.854 175.883 271.721 174.85C270.621 173.817 269.004 173.3 266.871 173.3C264.637 173.3 262.887 174 261.621 175.4C260.354 176.8 259.721 179 259.721 182V192.15C259.721 193.717 259.921 195.05 260.321 196.15C260.721 197.25 261.271 198.167 261.971 198.9C262.704 199.633 263.554 200.167 264.521 200.5C265.521 200.833 266.604 201 267.771 201C269.904 201 271.704 200.45 273.171 199.35C274.671 198.217 275.804 196.7 276.571 194.8L279.421 196.45C278.987 197.717 278.371 198.917 277.571 200.05C276.771 201.15 275.804 202.117 274.671 202.95C273.571 203.783 272.321 204.433 270.921 204.9C269.521 205.367 268.004 205.6 266.371 205.6ZM283.523 201.7H287.023V173.4H283.523V170.1H298.623V173.4H295.123V201.7H298.623V205H283.523V201.7ZM318.812 205.6C316.312 205.6 314.095 205.15 312.162 204.25C310.262 203.317 308.645 202.05 307.312 200.45C305.979 198.817 304.962 196.9 304.262 194.7C303.595 192.5 303.262 190.133 303.262 187.6C303.262 184.667 303.662 182.067 304.462 179.8C305.295 177.533 306.395 175.65 307.762 174.15C309.129 172.617 310.712 171.467 312.512 170.7C314.345 169.9 316.245 169.5 318.212 169.5C319.279 169.5 320.212 169.617 321.012 169.85C321.845 170.05 322.562 170.317 323.162 170.65C323.762 170.983 324.262 171.367 324.662 171.8C325.062 172.2 325.362 172.6 325.562 173H325.862V170.1H331.662V181.2H325.862V178.95C325.862 177.25 325.295 175.883 324.162 174.85C323.062 173.817 321.445 173.3 319.312 173.3C317.079 173.3 315.329 174 314.062 175.4C312.795 176.8 312.162 179 312.162 182V192.15C312.162 193.717 312.362 195.05 312.762 196.15C313.162 197.25 313.712 198.167 314.412 198.9C315.145 199.633 315.995 200.167 316.962 200.5C317.962 200.833 319.045 201 320.212 201C322.345 201 324.145 200.45 325.612 199.35C327.112 198.217 328.245 196.7 329.012 194.8L331.862 196.45C331.429 197.717 330.812 198.917 330.012 200.05C329.212 201.15 328.245 202.117 327.112 202.95C326.012 203.783 324.762 204.433 323.362 204.9C321.962 205.367 320.445 205.6 318.812 205.6ZM335.964 201.7H339.464V173.4H335.964V170.1H351.064V173.4H347.564V187.5H347.914L353.564 181.3L360.864 173.4H357.364V170.1H369.564V173.4H365.914L356.964 182.7L368.564 201.7H371.564V205H355.914V201.7H359.164L351.414 188.2L347.564 192.2V201.7H351.064V205H335.964V201.7ZM388.194 205.6C387.194 205.6 386.277 205.483 385.444 205.25C384.644 205.05 383.927 204.783 383.294 204.45C382.694 204.083 382.177 203.7 381.744 203.3C381.344 202.867 381.044 202.467 380.844 202.1H380.644V205H374.844V194.8H380.644V196.95C380.644 198.75 381.277 200.033 382.544 200.8C383.811 201.533 385.544 201.9 387.744 201.9C390.044 201.9 391.744 201.433 392.844 200.5C393.977 199.567 394.544 198.35 394.544 196.85C394.544 196.117 394.444 195.483 394.244 194.95C394.077 194.417 393.777 193.967 393.344 193.6C392.911 193.2 392.327 192.867 391.594 192.6C390.861 192.3 389.944 192.033 388.844 191.8L386.594 191.3C384.894 190.967 383.327 190.517 381.894 189.95C380.494 189.35 379.294 188.583 378.294 187.65C377.294 186.717 376.511 185.6 375.944 184.3C375.411 183 375.144 181.467 375.144 179.7C375.144 178.2 375.411 176.833 375.944 175.6C376.477 174.333 377.244 173.25 378.244 172.35C379.244 171.45 380.477 170.75 381.944 170.25C383.444 169.75 385.144 169.5 387.044 169.5C388.077 169.5 388.994 169.617 389.794 169.85C390.627 170.05 391.344 170.317 391.944 170.65C392.577 170.983 393.094 171.367 393.494 171.8C393.894 172.2 394.194 172.583 394.394 172.95H394.594V170.1H400.394V180.3H394.594V178.1C394.594 176.333 393.977 175.083 392.744 174.35C391.511 173.583 389.911 173.2 387.944 173.2C385.677 173.2 384.011 173.683 382.944 174.65C381.911 175.583 381.394 176.717 381.394 178.05C381.394 178.817 381.511 179.467 381.744 180C381.977 180.533 382.344 181 382.844 181.4C383.377 181.8 384.061 182.15 384.894 182.45C385.727 182.717 386.744 182.983 387.944 183.25L390.044 183.65C391.777 184.017 393.327 184.5 394.694 185.1C396.094 185.667 397.261 186.4 398.194 187.3C399.161 188.2 399.894 189.267 400.394 190.5C400.894 191.7 401.144 193.1 401.144 194.7C401.144 196.267 400.844 197.717 400.244 199.05C399.644 200.383 398.777 201.533 397.644 202.5C396.544 203.467 395.194 204.233 393.594 204.8C391.994 205.333 390.194 205.6 388.194 205.6Z" fill="white"/>
<path d="M163.881 43.3662C152.603 40.3182 150 57.2999 150 57.2999V119.566C150 123.92 152.603 126.968 159.977 130.452C167.351 133.935 249.335 130.452 273.627 130.452C297.918 130.452 315.269 126.968 325.246 124.356C335.223 121.743 349.321 112.382 349.971 105.632C350.622 98.8833 339.995 94.7467 335.223 93.4404C330.451 92.1341 276.663 87.3444 264.951 79.0713C253.239 70.7982 228.514 43.3662 228.514 43.3662L177.762 57.2999C177.762 57.2999 175.159 46.4142 163.881 43.3662Z" stroke="white" stroke-width="3"/>
<path d="M150 110.517C150 110.517 178.308 107.448 215.231 110.517C252.154 113.586 258.308 116.655 272.462 116.655C286.615 116.655 313.692 110.517 327.231 110.517C340.769 110.517 348.154 110.517 348.154 110.517" stroke="white" stroke-width="3"/>
<path d="M97 149L404 149" stroke="white" stroke-width="3"/>
</svg>
