<svg width="140" height="89" viewBox="0 0 140 89" fill="none" xmlns="http://www.w3.org/2000/svg">
<rect width="140" height="89" fill="#FFA400"/>
<path d="M38.994 11.1366C34.9364 9.99928 34 16.336 34 16.336V39.5706C34 41.1954 34.9364 42.3328 37.5895 43.6326C40.2426 44.9325 69.7386 43.6326 78.4782 43.6326C87.2178 43.6326 93.4603 42.3328 97.0498 41.3579C100.639 40.383 105.711 36.8897 105.945 34.3713C106.18 31.8528 102.356 30.3093 100.639 29.8218C98.9226 29.3344 79.5707 27.5471 75.3569 24.46C71.1432 21.3729 62.2476 11.1366 62.2476 11.1366L43.9881 16.336C43.9881 16.336 43.0517 12.274 38.994 11.1366Z" stroke="white" stroke-width="7"/>
<path d="M34 36.194C34 36.194 44.1845 35.0488 57.4686 36.194C70.7528 37.3392 72.9668 38.4844 78.059 38.4844C83.1513 38.4844 92.893 36.194 97.7638 36.194C102.635 36.194 105.292 36.194 105.292 36.194" stroke="white" stroke-width="7"/>
<path d="M14 52.5828L125.137 52.5828" stroke="white" stroke-width="5"/>
<path d="M23.72 65.82C24.6933 65.82 25.5467 65.96 26.28 66.24C27.0267 66.5067 27.4 66.8733 27.4 67.34C27.4 67.8067 27.22 68.3867 26.86 69.08C26.5133 69.76 26.22 70.1 25.98 70.1C25.9133 70.1 25.8333 70.0667 25.74 70C25.66 69.92 25.46 69.84 25.14 69.76C24.8333 69.6667 24.5667 69.62 24.34 69.62C23.5667 69.62 22.94 69.8933 22.46 70.44C21.9933 70.9867 21.76 71.8267 21.76 72.96C21.76 74.08 22 74.9133 22.48 75.46C22.9733 76.0067 23.5933 76.28 24.34 76.28C24.6467 76.28 24.9867 76.24 25.36 76.16C25.7467 76.0667 26.02 75.94 26.18 75.78C26.2067 75.7533 26.26 75.74 26.34 75.74C26.42 75.74 26.5667 75.8933 26.78 76.2C27.0067 76.4933 27.2133 76.8867 27.4 77.38C27.5867 77.86 27.68 78.2333 27.68 78.5C27.68 79.02 27.28 79.4333 26.48 79.74C25.68 80.0467 24.7333 80.2 23.64 80.2C21.88 80.2 20.4333 79.58 19.3 78.34C18.1667 77.1 17.6 75.3533 17.6 73.1C17.6 70.8333 18.18 69.0533 19.34 67.76C20.5133 66.4667 21.9733 65.82 23.72 65.82ZM35.1509 80.2C33.2843 80.2 31.7576 79.5867 30.5709 78.36C29.3976 77.1333 28.8109 75.3467 28.8109 73C28.8109 70.64 29.4043 68.8533 30.5909 67.64C31.7909 66.4267 33.3309 65.82 35.2109 65.82C37.1043 65.82 38.6309 66.42 39.7909 67.62C40.9509 68.8067 41.5309 70.6133 41.5309 73.04C41.5309 75.4533 40.9376 77.2533 39.7509 78.44C38.5643 79.6133 37.0309 80.2 35.1509 80.2ZM35.1709 69.66C34.5309 69.66 33.9909 69.9533 33.5509 70.54C33.1243 71.1267 32.9109 71.9533 32.9109 73.02C32.9109 74.0733 33.1176 74.8867 33.5309 75.46C33.9443 76.02 34.4843 76.3 35.1509 76.3C35.8309 76.3 36.3776 76.0133 36.7909 75.44C37.2176 74.8667 37.4309 74.0467 37.4309 72.98C37.4309 71.9133 37.2109 71.0933 36.7709 70.52C36.3443 69.9467 35.8109 69.66 35.1709 69.66ZM49.0767 80.2C47.2101 80.2 45.6834 79.5867 44.4967 78.36C43.3234 77.1333 42.7367 75.3467 42.7367 73C42.7367 70.64 43.3301 68.8533 44.5167 67.64C45.7167 66.4267 47.2567 65.82 49.1367 65.82C51.0301 65.82 52.5567 66.42 53.7167 67.62C54.8767 68.8067 55.4567 70.6133 55.4567 73.04C55.4567 75.4533 54.8634 77.2533 53.6767 78.44C52.4901 79.6133 50.9567 80.2 49.0767 80.2ZM49.0967 69.66C48.4567 69.66 47.9167 69.9533 47.4767 70.54C47.0501 71.1267 46.8367 71.9533 46.8367 73.02C46.8367 74.0733 47.0434 74.8867 47.4567 75.46C47.8701 76.02 48.4101 76.3 49.0767 76.3C49.7567 76.3 50.3034 76.0133 50.7167 75.44C51.1434 74.8667 51.3567 74.0467 51.3567 72.98C51.3567 71.9133 51.1367 71.0933 50.6967 70.52C50.2701 69.9467 49.7367 69.66 49.0967 69.66ZM56.8625 78.82V66.38C56.8625 66.1 57.5358 65.96 58.8825 65.96C60.2425 65.96 60.9225 66.1 60.9225 66.38V76.18H64.0025C64.2425 76.18 64.4092 76.4933 64.5025 77.12C64.5425 77.4267 64.5625 77.74 64.5625 78.06C64.5625 78.38 64.5425 78.7067 64.5025 79.04C64.3958 79.68 64.2225 80 63.9825 80H57.8225C57.5292 80 57.2958 79.88 57.1225 79.64C56.9492 79.4 56.8625 79.1267 56.8625 78.82ZM73.5234 79.72C73.5234 79.92 72.8968 80.02 71.6434 80.02L70.5234 79.96C69.8568 79.9067 69.5234 79.8133 69.5234 79.68V66.26C69.5234 66.0333 70.1901 65.92 71.5234 65.92C72.8568 65.92 73.5234 66.0333 73.5234 66.26V71.38L75.9634 66.26C76.0568 66.0733 76.5901 65.98 77.5634 65.98C79.3368 65.98 80.2701 66.1333 80.3634 66.44C80.3634 66.4667 80.3568 66.4933 80.3434 66.52L76.8634 72.8L80.9034 78.38C80.9034 78.4067 80.7768 78.52 80.5234 78.72C79.9101 79.2533 79.1901 79.6733 78.3634 79.98C78.1101 80.0733 77.8568 80.12 77.6034 80.12L77.1234 80.08C76.6968 79.9733 76.3634 79.7 76.1234 79.26L73.8434 74.9H73.5234V79.72ZM83.2458 76.56V69.44H81.8258C81.5991 69.44 81.4391 69.1533 81.3458 68.58C81.3058 68.3 81.2858 68.0133 81.2858 67.72C81.2858 67.4267 81.3058 67.14 81.3458 66.86C81.4391 66.2867 81.5991 66 81.8258 66H88.5458C88.7724 66 88.9258 66.2867 89.0058 66.86C89.0591 67.14 89.0858 67.4267 89.0858 67.72C89.0858 68.0133 89.0591 68.3 89.0058 68.58C88.9258 69.1533 88.7724 69.44 88.5458 69.44H87.2058V76.56H88.6058C88.8324 76.56 88.9924 76.8467 89.0858 77.42C89.1391 77.7 89.1658 77.9867 89.1658 78.28C89.1658 78.5733 89.1391 78.86 89.0858 79.14C88.9924 79.7133 88.8324 80 88.6058 80H81.8658C81.6391 80 81.4858 79.7133 81.4058 79.14C81.3524 78.86 81.3258 78.5733 81.3258 78.28C81.3258 77.9867 81.3524 77.7 81.4058 77.42C81.4858 76.8467 81.6391 76.56 81.8658 76.56H83.2458ZM96.22 65.82C97.1933 65.82 98.0467 65.96 98.78 66.24C99.5267 66.5067 99.9 66.8733 99.9 67.34C99.9 67.8067 99.72 68.3867 99.36 69.08C99.0133 69.76 98.72 70.1 98.48 70.1C98.4133 70.1 98.3333 70.0667 98.24 70C98.16 69.92 97.96 69.84 97.64 69.76C97.3333 69.6667 97.0667 69.62 96.84 69.62C96.0667 69.62 95.44 69.8933 94.96 70.44C94.4933 70.9867 94.26 71.8267 94.26 72.96C94.26 74.08 94.5 74.9133 94.98 75.46C95.4733 76.0067 96.0933 76.28 96.84 76.28C97.1467 76.28 97.4867 76.24 97.86 76.16C98.2467 76.0667 98.52 75.94 98.68 75.78C98.7067 75.7533 98.76 75.74 98.84 75.74C98.92 75.74 99.0667 75.8933 99.28 76.2C99.5067 76.4933 99.7133 76.8867 99.9 77.38C100.087 77.86 100.18 78.2333 100.18 78.5C100.18 79.02 99.78 79.4333 98.98 79.74C98.18 80.0467 97.2333 80.2 96.14 80.2C94.38 80.2 92.9333 79.58 91.8 78.34C90.6667 77.1 90.1 75.3533 90.1 73.1C90.1 70.8333 90.68 69.0533 91.84 67.76C93.0133 66.4667 94.4733 65.82 96.22 65.82ZM105.711 79.72C105.711 79.92 105.084 80.02 103.831 80.02L102.711 79.96C102.044 79.9067 101.711 79.8133 101.711 79.68V66.26C101.711 66.0333 102.378 65.92 103.711 65.92C105.044 65.92 105.711 66.0333 105.711 66.26V71.38L108.151 66.26C108.244 66.0733 108.778 65.98 109.751 65.98C111.524 65.98 112.458 66.1333 112.551 66.44C112.551 66.4667 112.544 66.4933 112.531 66.52L109.051 72.8L113.091 78.38C113.091 78.4067 112.964 78.52 112.711 78.72C112.098 79.2533 111.378 79.6733 110.551 79.98C110.298 80.0733 110.044 80.12 109.791 80.12L109.311 80.08C108.884 79.9733 108.551 79.7 108.311 79.26L106.031 74.9H105.711V79.72ZM114.633 75.12C114.887 75.32 115.32 75.5933 115.933 75.94C116.56 76.2867 117.153 76.46 117.713 76.46C118.287 76.46 118.573 76.24 118.573 75.8C118.573 75.6 118.493 75.4267 118.333 75.28C118.173 75.12 117.88 74.94 117.453 74.74C117.027 74.54 116.707 74.3867 116.493 74.28C116.28 74.16 115.993 73.9733 115.633 73.72C115.287 73.4533 115.02 73.18 114.833 72.9C114.3 72.14 114.033 71.1733 114.033 70C114.033 68.8267 114.467 67.84 115.333 67.04C116.213 66.2267 117.36 65.82 118.773 65.82C119.733 65.82 120.62 65.9267 121.433 66.14C122.247 66.34 122.667 66.6067 122.693 66.94C122.693 66.98 122.693 67.02 122.693 67.06C122.693 67.5267 122.547 68.12 122.253 68.84C121.96 69.5467 121.753 69.94 121.633 70.02C120.78 69.58 120.013 69.36 119.333 69.36C118.667 69.36 118.333 69.6 118.333 70.08C118.333 70.3733 118.58 70.6333 119.073 70.86C119.18 70.9133 119.333 70.9867 119.533 71.08C119.733 71.1733 119.96 71.2867 120.213 71.42C120.48 71.54 120.76 71.7 121.053 71.9C121.36 72.0867 121.687 72.34 122.033 72.66C122.74 73.3267 123.093 74.2067 123.093 75.3C123.093 76.7267 122.7 77.8933 121.913 78.8C121.127 79.7067 119.913 80.1733 118.273 80.2C117.473 80.2 116.747 80.1333 116.093 80C115.453 79.8667 114.893 79.6067 114.413 79.22C113.933 78.8333 113.693 78.3667 113.693 77.82C113.693 77.2733 113.793 76.7333 113.993 76.2C114.193 75.6533 114.407 75.2933 114.633 75.12Z" fill="white"/>
</svg>
